<svg width="143" height="200" viewBox="0 0 143 200" fill="none" xmlns="http://www.w3.org/2000/svg">
<path d="M71.3916 0C32.0259 0 0 32.0259 0 71.3911C0 95.9108 29.789 149.795 54.7786 190.681C58.3452 196.517 64.5556 200 71.3916 200C78.2282 200 84.4381 196.516 88.0046 190.681C112.995 149.795 142.783 95.9108 142.783 71.3911C142.783 32.0259 110.757 0 71.3916 0ZM71.3916 95.1842C55.5692 95.1842 42.6962 82.3118 42.6962 66.4894C42.6962 50.6674 55.5692 37.795 71.3916 37.795C87.2141 37.795 100.087 50.6674 100.087 66.4894C100.087 82.3123 87.2141 95.1842 71.3916 95.1842Z" fill="#FE5857"/>
<path d="M71.3907 0H71.3887V37.795H71.3907C87.2132 37.795 100.086 50.6674 100.086 66.4894C100.086 82.3118 87.2132 95.1842 71.3907 95.1842H71.3887V200H71.3907C78.2273 200 84.4372 196.516 88.0037 190.681C112.994 149.795 142.782 95.9108 142.782 71.3911C142.782 32.0259 110.756 0 71.3907 0Z" fill="#DB0253"/>
</svg>
